<svg width="25" height="24" viewBox="0 0 25 24" fill="none" xmlns="http://www.w3.org/2000/svg">
<g id="grid">
<rect id="Rectangle" opacity="0.01" x="0.333008" width="24" height="24" fill="#00BBE4"/>
<path id="Path" d="M9.33301 3H5.33301C4.22844 3 3.33301 3.89543 3.33301 5V9C3.33301 10.1046 4.22844 11 5.33301 11H9.33301C10.4376 11 11.333 10.1046 11.333 9V5C11.333 3.89543 10.4376 3 9.33301 3Z" fill="#00BBE4"/>
<path id="Path_2" d="M19.333 3H15.333C14.2284 3 13.333 3.89543 13.333 5V9C13.333 10.1046 14.2284 11 15.333 11H19.333C20.4376 11 21.333 10.1046 21.333 9V5C21.333 3.89543 20.4376 3 19.333 3Z" fill="#00BBE4"/>
<path id="Path_3" d="M9.33301 13H5.33301C4.22844 13 3.33301 13.8954 3.33301 15V19C3.33301 20.1046 4.22844 21 5.33301 21H9.33301C10.4376 21 11.333 20.1046 11.333 19V15C11.333 13.8954 10.4376 13 9.33301 13Z" fill="#00BBE4"/>
<path id="Path_4" d="M19.333 13H15.333C14.2284 13 13.333 13.8954 13.333 15V19C13.333 20.1046 14.2284 21 15.333 21H19.333C20.4376 21 21.333 20.1046 21.333 19V15C21.333 13.8954 20.4376 13 19.333 13Z" fill="#00BBE4"/>
</g>
</svg>
